<svg xmlns="http://www.w3.org/2000/svg" viewBox="0 0 48.69 78.4"><defs><style>.cls-1{fill:#ac39ac;}.cls-2{opacity:0.6;}.cls-3{fill:#fff;}</style></defs><title>Element 15ldpi</title><g id="Ebene_2" data-name="Ebene 2"><g id="Ebene_1-2" data-name="Ebene 1"><path class="cls-1" d="M25.83,35c-8.63-2.24-11.4-4.56-11.4-8.17,0-4.14,3.84-7,10.26-7,6.76,0,9.27,3.23,9.5,8h8.4c-.27-6.54-4.26-12.54-12.2-14.48V5H19v8.21c-7.37,1.6-13.3,6.38-13.3,13.72,0,8.78,7.26,13.15,17.86,15.69,9.5,2.28,11.4,5.62,11.4,9.16,0,2.62-1.86,6.8-10.26,6.8-7.83,0-10.91-3.5-11.32-8H5c.46,8.32,6.69,13,14,14.55V73.4h11.4V65.23c7.41-1.41,13.3-5.7,13.3-13.49C43.69,40.95,34.45,37.26,25.83,35Z"/><g class="cls-2"><path class="cls-3" d="M30.39,5v8.32c7.94,1.94,11.93,7.94,12.2,14.48h-8.4c-.23-4.75-2.74-8-9.5-8-6.42,0-10.26,2.89-10.26,7,0,3.61,2.77,5.93,11.4,8.17s17.86,5.93,17.86,16.72c0,7.79-5.89,12.08-13.3,13.49V73.4H19V65.16C11.69,63.6,5.46,58.92,5,50.6h8.36c.42,4.48,3.5,8,11.32,8,8.4,0,10.26-4.18,10.26-6.8,0-3.53-1.9-6.88-11.4-9.16C12.94,40.08,5.68,35.71,5.68,26.93c0-7.33,5.93-12.12,13.3-13.72V5h11.4m0-5H19a5,5,0,0,0-5,5V9.47C5.79,12.54.68,19.08.68,26.93.68,42.27,17,46.2,22.38,47.48c7.57,1.82,7.57,3.68,7.57,4.3,0,.9-1.81,1.8-5.26,1.8-6,0-6.24-2.33-6.35-3.44a5,5,0,0,0-5-4.54H5a5,5,0,0,0-5,5.27c.46,8.46,5.6,15,14,18V73.4a5,5,0,0,0,5,5h11.4a5,5,0,0,0,5-5V69.08c8.41-2.86,13.3-9.13,13.3-17.34,0-10.77-7.16-16.13-13.63-18.94h7.52a5,5,0,0,0,5-5.2A19.81,19.81,0,0,0,35.39,9.74V5a5,5,0,0,0-5-5Zm-11,27s0-.06,0-.18c0-1.16,2.26-2,5.26-2,4.35,0,4.42,1.42,4.51,3.22a5,5,0,0,0,1.25,3.07c-1.29-.4-2.44-.69-3.36-.93-6.61-1.72-7.58-3-7.65-3.15Z"/></g></g></g></svg>