<svg xmlns="http://www.w3.org/2000/svg" viewBox="0 0 63.76 66.92"><defs><style>.cls-1{opacity:0.6;}.cls-2,.cls-3{fill:#fff;}.cls-3{opacity:0.6;}.cls-4{fill:#ac39ac;}</style></defs><title>Element 17ldpi</title><g id="Ebene_2" data-name="Ebene 2"><g id="Ebene_1-2" data-name="Ebene 1"><g class="cls-1"><path class="cls-2" d="M30.3,5a6.34,6.34,0,0,1,6.32,6.32V33.46h3.16a6.34,6.34,0,0,1,6.32,6.32V54a3.16,3.16,0,0,0,6.32,0V31.22a3.16,3.16,0,0,1-1.91.66,7.89,7.89,0,0,1-2.81-15.27L41,9.93l3.35-3.35L56.15,18.34l0,0c1.42,1.42,2.64,5.6,2.64,5.6V52.43a7.91,7.91,0,0,1-7.91,7.91,8.36,8.36,0,0,1-2-.24,8.16,8.16,0,0,1-5.94-8.05V36.62H36.62v25.3H5V11.32A6.34,6.34,0,0,1,11.32,5h19m-19,22.14h19V11.32h-19V27.14M30.3,0h-19A11.34,11.34,0,0,0,0,11.32v50.6a5,5,0,0,0,5,5H36.62a5,5,0,0,0,5-5v-.55A12.35,12.35,0,0,0,47.71,65a13.39,13.39,0,0,0,3.14.38A12.92,12.92,0,0,0,63.76,52.43V24a5,5,0,0,0-.2-1.4,22.91,22.91,0,0,0-3.19-6.92,4.93,4.93,0,0,0-.68-.85L47.92,3a5,5,0,0,0-7.07,0L39.36,4.54A11.31,11.31,0,0,0,30.3,0Zm-14,16.32h9v5.81h-9V16.32Z"/></g><circle class="cls-3" cx="50.52" cy="23.97" r="3.16"/><path class="cls-4" d="M56.12,18.38l0,0L44.39,6.58,41,9.93l6.67,6.67a7.89,7.89,0,0,0,2.81,15.27,3.16,3.16,0,0,0,1.91-.66V54a3.16,3.16,0,1,1-6.32,0V39.79a6.34,6.34,0,0,0-6.32-6.32H36.62V11.32A6.34,6.34,0,0,0,30.3,5h-19A6.34,6.34,0,0,0,5,11.32v50.6H36.62V36.62h6.32V52.05a8.16,8.16,0,0,0,5.94,8.05,7.92,7.92,0,0,0,9.87-7.67V24S57.54,19.8,56.12,18.38ZM30.3,27.14h-19V11.32h19Zm20.23,0A3.16,3.16,0,1,1,53.69,24,3.17,3.17,0,0,1,50.52,27.14Z"/></g></g></svg>