<svg xmlns="http://www.w3.org/2000/svg" viewBox="0 0 73.19 53.08"><defs><style>.cls-1{opacity:0.6;}.cls-2{fill:#fff;}.cls-3{fill:#0092da;}</style></defs><title>Element 18ldpi</title><g id="Ebene_2" data-name="Ebene 2"><g id="Ebene_1-2" data-name="Ebene 1"><g class="cls-1"><path class="cls-2" d="M21.24,10.74a8.62,8.62,0,1,1-8.62,8.62,8.61,8.61,0,0,1,8.62-8.62m0-5A13.62,13.62,0,1,0,34.85,19.36,13.63,13.63,0,0,0,21.24,5.74Z"/><path class="cls-2" d="M10.74,5V30.85h23V10.74h23A11.49,11.49,0,0,1,68.19,22.23V48.08H62.44V39.47H10.74v8.62H5V5h5.74m0-5H5A5,5,0,0,0,0,5V48.08a5,5,0,0,0,5,5h5.74a5,5,0,0,0,5-5V44.47h41.7v3.62a5,5,0,0,0,5,5h5.74a5,5,0,0,0,5-5V22.23A16.51,16.51,0,0,0,56.7,5.74h-23a5,5,0,0,0-5,5V25.85h-13V5a5,5,0,0,0-5-5Z"/></g><path class="cls-3" d="M21.24,28a8.62,8.62,0,1,0-8.62-8.62A8.61,8.61,0,0,0,21.24,28Z"/><path class="cls-3" d="M56.7,10.74h-23V30.85h-23V5H5V48.08h5.74V39.47h51.7v8.62h5.74V22.23A11.49,11.49,0,0,0,56.7,10.74Z"/></g></g></svg>