<svg xmlns="http://www.w3.org/2000/svg" viewBox="0 0 84.67 54.01"><defs><style>.cls-1{fill:#ac39ac;}.cls-2{opacity:0.6;}.cls-3{fill:#fff;}</style></defs><title>Element 16ldpi</title><g id="Ebene_2" data-name="Ebene 2"><g id="Ebene_1-2" data-name="Ebene 1"><path class="cls-1" d="M36.12,36.43h4.42l8.71-8.71a15.16,15.16,0,0,0-1,4.88A16,16,0,0,0,64,49,15.56,15.56,0,0,0,79.67,33.29,15.47,15.47,0,0,0,65.34,17.67L52.67,5H38.81v6.29H50.09l6.29,6.29h-35C13.32,17.57,5.59,24.09,5,32.12A15.59,15.59,0,0,0,20.72,49,15.5,15.5,0,0,0,36.12,36.43Zm28.6-11.84A9.43,9.43,0,1,1,55.29,34,9.42,9.42,0,0,1,64.72,24.59Zm-54.2,8.7a9.54,9.54,0,0,1,9.43-9.43,9.57,9.57,0,0,1,8.86,6.29H19.95v6.29h8.86a9.57,9.57,0,0,1-8.86,6.29A9.54,9.54,0,0,1,10.52,33.29Z"/><g class="cls-2"><path class="cls-3" d="M52.67,5,65.34,17.67A15.47,15.47,0,0,1,79.67,33.29,15.56,15.56,0,0,1,64,49h0a16,16,0,0,1-15.7-16.4,15.16,15.16,0,0,1,1-4.88l-8.71,8.71H36.12A15.5,15.5,0,0,1,20.72,49,15.59,15.59,0,0,1,5,32.12c.55-8,8.27-14.55,16.33-14.55h35l-6.29-6.29H38.81V5H52.67M19.95,42.72a9.57,9.57,0,0,0,8.86-6.29H19.95V30.15h8.86a9.57,9.57,0,0,0-8.86-6.29,9.43,9.43,0,0,0,0,18.86m44.77.73A9.43,9.43,0,1,0,55.29,34a9.42,9.42,0,0,0,9.43,9.43M52.67,0H38.81a5,5,0,0,0-5,5v6.29A5,5,0,0,0,34,12.57H21.37C10.53,12.57.77,21.37.05,31.78A20.59,20.59,0,0,0,20.72,54,20.43,20.43,0,0,0,39.81,41.43h.73A5,5,0,0,0,44.07,40l.25-.25a21.15,21.15,0,0,0,4.77,7.86A20.75,20.75,0,0,0,64,54,20.5,20.5,0,0,0,84.67,33.29a20.45,20.45,0,0,0-17-20.37L56.21,1.46A5,5,0,0,0,52.67,0ZM64.72,38.45A4.43,4.43,0,1,1,69.15,34a4.43,4.43,0,0,1-4.43,4.43Z"/></g></g></g></svg>