<svg xmlns="http://www.w3.org/2000/svg" viewBox="0 0 84.69 54"><defs><style>.cls-1{fill:#0c0001;}.cls-2{opacity:0.6;}.cls-3{fill:#fff;}</style></defs><title>motorcycle</title><g id="Ebene_2" data-name="Ebene 2"><g id="Ebene_1-2" data-name="Ebene 1"><g id="Ebene_1-2-2" data-name="Ebene 1-2"><path class="cls-1" d="M36.14,36.43h4.42l8.71-8.71a15.11,15.11,0,0,0-1,4.88A16,16,0,0,0,63.86,49H64A15.57,15.57,0,0,0,79.69,33.55v-.26A15.47,15.47,0,0,0,65.36,17.67L52.69,5H38.83v6.29H50.11l6.29,6.29h-35C13.34,17.57,5.61,24.09,5,32.12A15.59,15.59,0,0,0,19.26,49a14.54,14.54,0,0,0,1.48,0A15.51,15.51,0,0,0,36.14,36.43Zm28.6-11.84A9.43,9.43,0,1,1,55.31,34v0a9.41,9.41,0,0,1,9.43-9.41Zm-54.2,8.7A9.54,9.54,0,0,1,20,23.86a9.58,9.58,0,0,1,8.86,6.29H20v6.29h8.86A9.58,9.58,0,0,1,20,42.73,9.53,9.53,0,0,1,10.54,33.29Z"/><g class="cls-2"><path class="cls-3" d="M52.69,5,65.36,17.67A15.47,15.47,0,0,1,79.69,33.29,15.57,15.57,0,0,1,64.28,49H64A16,16,0,0,1,48.31,32.71V32.6a15.11,15.11,0,0,1,1-4.88l-8.71,8.71H36.14A15.51,15.51,0,0,1,20.74,49,15.6,15.6,0,0,1,5,33.59,14.45,14.45,0,0,1,5,32.12c.55-8,8.27-14.55,16.33-14.55h35l-6.29-6.29H38.83V5H52.69M20,42.72a9.58,9.58,0,0,0,8.86-6.29H20V30.15h8.86A9.58,9.58,0,0,0,20,23.86a9.43,9.43,0,0,0,0,18.86m44.77.73A9.43,9.43,0,1,0,55.31,34a9.43,9.43,0,0,0,9.43,9.45h0M52.69,0H38.83a5,5,0,0,0-5,5v6.29A4.67,4.67,0,0,0,34,12.57H21.39C10.55,12.57.79,21.37.07,31.78A20.58,20.58,0,0,0,19,53.94c.59,0,1.18.06,1.78.06A20.44,20.44,0,0,0,39.83,41.43h.73A5,5,0,0,0,44.09,40l.25-.25a21.05,21.05,0,0,0,4.77,7.86A20.75,20.75,0,0,0,64,54,20.51,20.51,0,0,0,84.69,33.67v-.38a20.45,20.45,0,0,0-17-20.37L56.23,1.46A5,5,0,0,0,52.69,0Zm12,38.45A4.43,4.43,0,1,1,69.17,34a4.43,4.43,0,0,1-4.43,4.45h0Z"/></g></g></g></g></svg>