<svg id="Ebene_1_Kopie" data-name="Ebene 1 Kopie" xmlns="http://www.w3.org/2000/svg" viewBox="0 0 749.48 749.48"><defs><style>.cls-1{fill:#fff;opacity:0.8;}.cls-2{fill:#aaa;}</style></defs><title>ic_mountainpass</title><polygon class="cls-1" points="281.73 126.65 8.63 534.52 737.6 536.99 544.89 228.8 470.25 321.57 389.57 300.21 281.73 126.65"/><path class="cls-2" d="M322.88,505.07c0-7,.29-13.91.92-20.68l50.7,5A98.53,98.53,0,0,0,379,502.51c.39.9.79,1.79,1.19,2.67l-57.28.1Z"/><path d="M313.39,471.27c-.38,2.48-.8,5-1.09,7.45a221.77,221.77,0,0,0-1.46,26.4q0,3.33.12,6.68c0,1.07.08,2.14.13,3.21,0,.36-.13,2.08.13,2.32a.41.41,0,0,0,.22,0c.21,0,.49,0,.57,0l88.69-.15a113.58,113.58,0,0,1-10.65-19.37,93.37,93.37,0,0,1-5.73-19.5l-70.93-7Z"/><path class="cls-2" d="M427.91,331.66,399,324.83c-5.08,4.42-10,9-14.78,13.76l34.48,6.35C421.55,340.66,424.57,336.3,427.91,331.66Z"/><path d="M399,324.83c-5.08,4.42-10,9-14.78,13.76l34.48,6.35c2.88-4.28,5.9-8.64,9.24-13.28L399,324.83Z"/><path class="cls-2" d="M338.61,425.25c.94-2.24,1.93-4.48,3-6.74l31.1,4.3q-.53,2.87-.93,5.73Z"/><path d="M334.57,405.39A221.45,221.45,0,0,0,324,429.49c-.74,2.05-1.37,4.13-2.06,6.2l60.48,6a154,154,0,0,1,4.81-29l-52.68-7.29Z"/><path class="cls-2" d="M365,372.22c1.55-2,3.14-4,4.74-6l24.58,4.53q-1.24,2.56-2.43,5.22Z"/><path d="M366.58,357.47a260.39,260.39,0,0,0-15.91,20.87l46.16,6.39a200.65,200.65,0,0,1,9.59-19.93l-39.84-7.33Z"/><path class="cls-2" d="M470.13,507.92l-.29-.45a106.17,106.17,0,0,1-7.55-14.17c-1.09-2.51-2.1-5.16-3-7.87-.84-2.46-1.61-5-2.27-7.52a103.63,103.63,0,0,1-3.05-18.4,119.62,119.62,0,0,1-.14-16.18A148.78,148.78,0,0,1,461.68,405c2.36-6.78,4.86-13,7.62-19,3.9-8.29,7.16-14.53,10.54-20.26,1.37-2.39,2.74-4.65,4.15-6.91,2.61-4.21,5.35-8.37,8.15-12.53l2.32-3.27c1.44-2,2.88-4.09,4.39-6.09l2.32-3.08c1.56-2.09,3.12-4.18,4.78-6.2,1.24-1.58,2.41-3,3.57-4.45l11.22-14.45,23.65-31.57L684.05,507.92Z"/><path d="M543.68,291.53,669.82,499.9H474.62a101.09,101.09,0,0,1-4.93-9.71c-1-2.36-2-4.84-2.84-7.35-.81-2.36-1.51-4.7-2.11-7a95.93,95.93,0,0,1-2.8-17,111.32,111.32,0,0,1-.14-15.06,140.77,140.77,0,0,1,7.43-36.11c2.3-6.61,4.7-12.61,7.33-18.31l.28-.61c3.52-7.46,6.67-13.48,10-19.18,1.26-2.2,2.59-4.38,3.94-6.55,2.25-3.64,4.75-7.48,7.85-12.08.8-1.11,1.59-2.24,2.38-3.36,1.38-2,2.76-3.93,4.14-5.76.82-1.07,1.62-2.15,2.43-3.23,1.49-2,3-4,4.73-6.12,1.12-1.42,2.26-2.83,3.63-4.52l11.27-14.52,16.44-22m1.41-28.65-30.69,41-11.1,14.29q-1.8,2.21-3.55,4.42c-2.55,3.12-4.89,6.39-7.32,9.56s-4.64,6.49-6.94,9.7c-2.86,4.24-5.65,8.49-8.31,12.77-1.46,2.35-2.89,4.7-4.24,7.08-3.94,6.66-7.4,13.48-10.61,20.26-.11.23-.2.47-.31.7-3,6.58-5.65,13.22-7.95,19.81a157.71,157.71,0,0,0-8.28,40.4,127.35,127.35,0,0,0,.15,17.28,111.51,111.51,0,0,0,3.28,19.8q1.08,4.13,2.45,8.1c1,2.91,2.09,5.75,3.29,8.53a113.38,113.38,0,0,0,8.09,15.18c.89,1.41,1.83,2.79,2.78,4.14l0,.06H697.18l0-.06.85-.41L545.09,262.88Z"/><path class="cls-2" d="M62.58,507.92,281,178.44l70.62,119.67-2,1.37c-2.47,1.71-4.86,3.47-7.25,5.24l-3.58,2.62-4.06,3.14c-6.89,5.37-12.37,9.9-17.24,14.24-1.57,1.38-3.17,2.82-4.78,4.29a292.25,292.25,0,0,0-34.16,37,240.74,240.74,0,0,0-30.8,52.57,219.07,219.07,0,0,0-12.45,39.88,209.88,209.88,0,0,0-3.56,23.37q-.27,2.79-.46,5.63c-.47,6.76-.64,13.6-.5,20.44Z"/><path d="M280.64,193.55,341,295.81c-1.15.83-2.29,1.67-3.43,2.52l-3.45,2.52-.18.13-.17.13-3.92,3c-7,5.49-12.65,10.12-17.55,14.5q-2.49,2.19-5,4.43a301,301,0,0,0-35.14,38.11,248.28,248.28,0,0,0-31.81,54.31,227.88,227.88,0,0,0-12.9,41.34,218.11,218.11,0,0,0-3.69,24.23c-.19,1.94-.34,3.89-.48,5.84q-.45,6.46-.54,13H77.52L280.64,193.55m.8-30.23L47.94,515.47l-.27.41,0,.06H239.18a.13.13,0,0,0,0-.06c0-.23,0-.46,0-.69a217.66,217.66,0,0,1,.19-27.16c.13-1.81.27-3.62.45-5.43a202.79,202.79,0,0,1,3.42-22.47,211.56,211.56,0,0,1,12-38.42A231.5,231.5,0,0,1,285,370.93a283.56,283.56,0,0,1,33.22-36c1.56-1.42,3.12-2.83,4.7-4.21,5.48-4.89,11.14-9.47,16.83-13.9,1.28-1,2.55-2,3.83-3,3.57-2.59,7.06-5.24,10.65-7.73l3.27-2.25c1.64-1.14,3.28-2.27,4.93-3.37L281.44,163.32Z"/></svg>