<svg xmlns="http://www.w3.org/2000/svg" viewBox="0 0 59.64 65.16"><defs><style>.cls-1{fill:#734a08;}.cls-2{opacity:0.6;}.cls-3{fill:#fff;}</style></defs><title>Element 21ldpi</title><g id="Ebene_2" data-name="Ebene 2"><g id="Ebene_1-2" data-name="Ebene 1"><path class="cls-1" d="M27.06,24.3H21.55V5H16V24.3H10.52V5H5V24.3c0,5.85,4.88,10.59,11,10.95v24.9h5.52V35.25c6.15-.36,11-5.1,11-10.95V5H27.06Z"/><path class="cls-1" d="M40.85,16V38.09h8.27V60.16h5.52V5C47,5,40.85,11.18,40.85,16Z"/><g class="cls-2"><path class="cls-3" d="M32.58,5V24.3c0,5.85-4.88,10.59-11,10.95v24.9H16V35.25C9.88,34.89,5,30.15,5,24.3V5h5.52V24.3H16V5h5.52V24.3h5.52V5h5.52m0-5H27.06A5,5,0,0,0,24.3.83,5,5,0,0,0,21.55,0H16a5,5,0,0,0-2.76.83A5,5,0,0,0,10.52,0H5A5,5,0,0,0,0,5V24.3a16.07,16.07,0,0,0,11,15V60.16a5,5,0,0,0,5,5h5.52a5,5,0,0,0,5-5V39.31a16.07,16.07,0,0,0,11-15V5a5,5,0,0,0-5-5Z"/><path class="cls-3" d="M54.64,5V60.16H49.12V38.09H40.85V16c0-4.85,6.18-11,13.79-11m0-5a20,20,0,0,0-13,4.91C38,8.07,35.85,12.13,35.85,16V38.09a5,5,0,0,0,5,5h3.27V60.16a5,5,0,0,0,5,5h5.52a5,5,0,0,0,5-5V5a5,5,0,0,0-5-5Z"/></g></g></g></svg>