<?xml version="1.0" encoding="UTF-8" standalone="no"?>
<svg
   xmlns:dc="http://purl.org/dc/elements/1.1/"
   xmlns:cc="http://creativecommons.org/ns#"
   xmlns:rdf="http://www.w3.org/1999/02/22-rdf-syntax-ns#"
   xmlns:svg="http://www.w3.org/2000/svg"
   xmlns="http://www.w3.org/2000/svg"
   xmlns:sodipodi="http://sodipodi.sourceforge.net/DTD/sodipodi-0.dtd"
   xmlns:inkscape="http://www.inkscape.org/namespaces/inkscape"
   height="580"
   width="580"
   version="1.0"
   id="svg37"
   sodipodi:docname="mountain_pass.svg"
   inkscape:version="0.92.1 r15371">
  <defs
     id="defs41" />
  <sodipodi:namedview
     pagecolor="#ffffff"
     bordercolor="#666666"
     borderopacity="1"
     objecttolerance="10"
     gridtolerance="10"
     guidetolerance="10"
     inkscape:pageopacity="0"
     inkscape:pageshadow="2"
     inkscape:window-width="1920"
     inkscape:window-height="1017"
     id="namedview39"
     showgrid="false"
     inkscape:zoom="0.73103448"
     inkscape:cx="149.295"
     inkscape:cy="354.83143"
     inkscape:window-x="-8"
     inkscape:window-y="-8"
     inkscape:window-maximized="1"
     inkscape:current-layer="svg37" />
  <metadata
     id="metadata2975">
    <rdf:RDF>
      <cc:Work
         rdf:about="">
        <dc:format>image/svg+xml</dc:format>
        <dc:type
           rdf:resource="http://purl.org/dc/dcmitype/StillImage" />
      </cc:Work>
    </rdf:RDF>
  </metadata>
  <path
     id="path8076"
     d="m 556.36,242.65 c -27.13,-0.43 -54.27,-0.86 -81.4,-1.29 -77.91,77.91 -155.81,155.81 -233.72,233.72 0,27.13 0,54.27 0,81.41 M 337.33,23.633 c 0.44,27.136 0.87,54.267 1.31,81.407 -77.91,77.91 -155.81,155.82 -233.72,233.72 -27.141,0 -54.271,0 -81.408,0"
     inkscape:connector-curvature="0"
     opacity="0.8"
     fill="none"
     stroke="#ffffff"
     stroke-linejoin="round"
     stroke-width="105.38" />
  <path
     id="path3068"
     d="m 337.33,23.633 c 0.44,27.136 0.87,54.267 1.31,81.407 -77.91,77.91 -155.81,155.82 -233.72,233.72 -27.141,0 -54.271,0 -81.408,0"
     inkscape:connector-curvature="0"
     opacity="0.8"
     fill="none"
     stroke="#820000"
     stroke-width="63.23"
     style="stroke:#b71c1c;stroke-opacity:1" />
  <path
     id="path3068-9"
     d="m 556.36,242.65 c -27.13,-0.43 -54.27,-0.86 -81.4,-1.29 -77.91,77.91 -155.81,155.81 -233.72,233.72 0,27.13 0,54.27 0,81.41"
     inkscape:connector-curvature="0"
     opacity="0.8"
     fill="none"
     stroke="#820000"
     stroke-width="63.23"
     style="stroke:#b71c1c;stroke-opacity:1" />
</svg>
